<svg width="15" height="15" viewBox="0 0 15 15" fill="none" xmlns="http://www.w3.org/2000/svg">
<rect width="15" height="15" fill="white"/>
<path fill-rule="evenodd" clip-rule="evenodd" d="M6.65747 9.4895L2.72146 13.4255C2.34222 13.8048 1.72736 13.8048 1.34812 13.4255C0.968881 13.0463 0.96888 12.4314 1.34812 12.0522L5.28414 8.11616L5.97082 8.80284L6.65747 9.4895ZM7.36458 10.1966L3.42856 14.1326C2.6588 14.9024 1.41077 14.9024 0.641011 14.1326C-0.12875 13.3629 -0.12875 12.1148 0.64101 11.3451L4.57703 7.40905L0.641016 3.47304C-0.128745 2.70328 -0.128744 1.45525 0.641017 0.68549C1.41078 -0.0842706 2.65881 -0.084271 3.42857 0.68549L7.36458 4.6215L11.3006 0.685475C12.0704 -0.0842866 13.3184 -0.0842854 14.0882 0.685476C14.8579 1.45524 14.8579 2.70327 14.0882 3.47303L10.1521 7.40906L14.0882 11.3451C14.8579 12.1149 14.8579 13.3629 14.0882 14.1326C13.3184 14.9024 12.0704 14.9024 11.3006 14.1326L7.36458 10.1966ZM9.44503 8.11616L13.3811 12.0522C13.7603 12.4314 13.7603 13.0463 13.3811 13.4255C13.0018 13.8048 12.387 13.8048 12.0077 13.4255L8.07169 9.4895L9.44503 8.11616ZM8.73792 7.40906L7.36458 8.78239L6.67792 8.09573L5.99124 7.40906L7.36458 6.03572L8.73792 7.40906ZM9.44503 6.70195L13.3811 2.76592C13.7603 2.38668 13.7603 1.77182 13.3811 1.39258C13.0018 1.01334 12.387 1.01335 12.0077 1.39258L8.07169 5.32861L9.44503 6.70195ZM6.65747 5.32861L2.72146 1.3926C2.34223 1.01336 1.72736 1.01336 1.34812 1.3926C0.968886 1.77183 0.968887 2.3867 1.34812 2.76594L5.28414 6.70195L6.65747 5.32861Z" fill="black"/>
<rect x="5.23346" y="6.64355" width="1.93477" height="4.16597" transform="rotate(-45 5.23346 6.64355)" fill="white"/>
<rect x="8.15216" y="5.25415" width="1.9389" height="4.16597" transform="rotate(45 8.15216 5.25415)" fill="white"/>
</svg>
