<svg width="15" height="15" viewBox="0 0 15 15" fill="none" xmlns="http://www.w3.org/2000/svg">
<path fill-rule="evenodd" clip-rule="evenodd" d="M5.28714 8.11917L5.99425 7.41206L5.99124 7.40906L5.9951 7.4052L5.28799 6.69809L5.28414 6.70195L1.34812 2.76594C0.968887 2.3867 0.968887 1.77183 1.34812 1.3926C1.72736 1.01336 2.34223 1.01336 2.72146 1.3926L6.65747 5.32861L6.65608 5.33L7.36319 6.03711L7.36458 6.03572L7.36759 6.03872L8.07469 5.33162L8.07169 5.32861L12.0077 1.39258C12.387 1.01335 13.0018 1.01334 13.3811 1.39258C13.7603 1.77182 13.7603 2.38668 13.3811 2.76592L9.52249 6.62448L9.52317 6.62516L8.73721 7.41112L9.44364 8.11755L9.44503 8.11616L13.3811 12.0522C13.7603 12.4314 13.7603 13.0463 13.3811 13.4255C13.0018 13.8048 12.387 13.8048 12.0077 13.4255L8.07169 9.4895L8.07555 9.48564L7.36911 8.77921L6.57738 9.57094L6.57671 9.57027L2.72146 13.4255C2.34222 13.8048 1.72736 13.8048 1.34812 13.4255C0.968881 13.0463 0.96888 12.4314 1.34812 12.0522L5.28414 8.11616L5.28714 8.11917ZM3.42856 14.1326L7.36458 10.1966L11.3006 14.1326C12.0704 14.9024 13.3184 14.9024 14.0882 14.1326C14.8579 13.3629 14.8579 12.1149 14.0882 11.3451L10.1521 7.40906L14.0882 3.47303C14.8579 2.70327 14.8579 1.45524 14.0882 0.685476C13.3184 -0.0842854 12.0704 -0.0842866 11.3006 0.685475L7.36458 4.6215L3.42857 0.68549C2.65881 -0.084271 1.41078 -0.0842706 0.641017 0.68549C-0.128744 1.45525 -0.128745 2.70328 0.641016 3.47304L4.57703 7.40905L0.64101 11.3451C-0.12875 12.1148 -0.12875 13.3629 0.641011 14.1326C1.41077 14.9024 2.6588 14.9024 3.42856 14.1326Z" fill="black"/>
</svg>
