<svg width="15" height="15" viewBox="0 0 15 15" fill="none" xmlns="http://www.w3.org/2000/svg">
<path d="M14.5999 11.9437L10.2 7.49376L14.65 3.04377C14.9 2.79375 15 2.49375 15 2.19375C15 1.89375 14.9 1.59375 14.65 1.39374L13.6 0.343741C13.15 -0.106259 12.4 -0.106259 11.95 0.343741L7.5 4.79376L3.04998 0.343741C2.59998 -0.106259 1.84998 -0.106259 1.39998 0.343741L0.34998 1.39374C0.15 1.59375 0 1.89375 0 2.19375C0 2.49375 0.15 2.79375 0.35001 3.04374L4.8 7.49376L0.34998 11.9437C-0.10002 12.3937 -0.10002 13.1437 0.34998 13.5937L1.39998 14.6437C1.84998 15.0937 2.59998 15.0937 3.04998 14.6437L7.49997 10.1938L11.9499 14.6437C12.1499 14.8438 12.4499 14.9938 12.7499 14.9938C13.0499 14.9938 13.3499 14.8938 13.55 14.6437L14.6 13.5937C14.8 13.3937 14.95 13.0937 14.95 12.7437C14.9499 12.4437 14.8499 12.1437 14.5999 11.9437ZM13.95 12.8938L12.9 13.9438C12.8 14.0437 12.75 14.0437 12.65 13.9438L7.84998 9.14375C7.8 9.04377 7.64997 8.99376 7.5 8.99376C7.35003 8.99376 7.24998 9.04377 7.15002 9.14375L2.35002 13.9438C2.25003 14.0437 2.20002 14.0437 2.1 13.9438L1.05 12.8938C1.00002 12.8437 1.00002 12.7438 1.05 12.6437L5.85 7.84374C5.94999 7.74375 6 7.64373 6 7.49376C6 7.34376 5.94999 7.24374 5.85 7.14375L1.05 2.34375C1.00002 2.29377 1.00002 2.24376 1.00002 2.19375C1.00002 2.14374 1.00002 2.09376 1.05 2.09376L2.1 1.04376C2.19999 0.94377 2.25 0.94377 2.35002 1.04376L7.15002 5.84376C7.35003 6.04377 7.65003 6.04377 7.85001 5.84376L12.65 1.04376C12.75 0.94377 12.8 0.94377 12.9 1.04376L13.95 2.09376C14 2.14374 14 2.19375 14 2.19375C14 2.24373 14 2.29374 13.95 2.29374L9.15 7.09374C8.94999 7.29375 8.94999 7.59375 9.15 7.79373L13.95 12.5937C14 12.6437 14 12.6937 14 12.6937C14 12.7937 14 12.8437 13.95 12.8938Z" fill="black"/>
</svg>
