<svg width="21" height="20" viewBox="0 0 21 20" fill="none" xmlns="http://www.w3.org/2000/svg">
<g clip-path="url(#clip0_1367_3)">
<rect width="21" height="20" fill="white"/>
<line x1="20.5" y1="16.5975" x2="14.3733" y2="16.5975" stroke="black" stroke-linecap="round"/>
<line x1="17.4276" y1="13.6708" x2="17.4276" y2="19.5" stroke="black" stroke-linecap="round"/>
<path d="M11.3371 9.26828C11.3371 11.1275 9.75799 12.6707 7.76471 12.6707C5.77142 12.6707 4.19231 11.1275 4.19231 9.26828C4.19231 7.40904 5.77142 5.86584 7.76471 5.86584C9.75799 5.86584 11.3371 7.40904 11.3371 9.26828Z" stroke="black"/>
<path d="M19.4819 4.1626C19.4819 5.16814 19.0885 5.9379 18.4663 6.46405C17.8353 6.99764 16.9382 7.30488 15.9095 7.30488C14.8808 7.30488 13.9837 6.99764 13.3527 6.46405C12.7305 5.9379 12.3371 5.16814 12.3371 4.1626C12.3371 2.12942 13.9468 0.5 15.9095 0.5C17.8722 0.5 19.4819 2.12942 19.4819 4.1626Z" stroke="black"/>
<path d="M11.328 9.26833C13.0249 8.13012 17.233 6.53662 20.4909 9.26833" stroke="black" stroke-linecap="round"/>
<path d="M12.3462 14.1463C9.63123 12.6829 3.5905 11.3171 1.14706 17.561C0.696619 18.7121 1.35071 19.5122 2.16518 19.5122C2.97966 19.5122 7.93442 19.5122 10.31 19.5122" stroke="black" stroke-linecap="round"/>
</g>
<defs>
<clipPath id="clip0_1367_3">
<rect width="21" height="20" fill="white"/>
</clipPath>
</defs>
</svg>
