<svg width="20" height="20" viewBox="0 0 20 20" fill="none" xmlns="http://www.w3.org/2000/svg">
<g clip-path="url(#clip0_1403_20)">
<rect width="20" height="20" fill="white"/>
<path d="M16.7069 8.78621C16.7069 4.48601 13.2649 1 9.0189 1C4.77292 1 1.33086 4.48601 1.33086 8.78621" stroke="#444444" stroke-linecap="round"/>
<path d="M9.44601 16.5724C7.5132 16.6877 5.99828 15.7707 4.74775 15.7072C3.66449 15.6523 1.33083 16.5724 1.33085 16.1398C1.33086 15.7072 2.18508 13.5444 2.18508 13.5444C1.45862 11.1606 1.27032 10.023 1.33085 8.35359" stroke="#444444" stroke-linecap="round"/>
<path d="M17.9633 16.7981L16.8886 18.4341L12.3464 14.1273L11.7768 12.1361L13.406 12.477L17.9633 16.7981Z" stroke="#444444"/>
<path d="M18.8913 18.3473L18.3712 19.1489C18.2205 19.3813 17.9354 19.417 17.7345 19.2288L16.9682 18.5107L18.0342 16.8677L18.8005 17.5857C19.0014 17.774 19.0421 18.1149 18.8913 18.3473Z" stroke="#444444"/>
<ellipse cx="5.72213" cy="8.65639" rx="0.710045" ry="0.735365" fill="#444444"/>
<ellipse cx="9.06351" cy="8.65639" rx="0.710045" ry="0.735365" fill="#444444"/>
<ellipse cx="12.4049" cy="8.65639" rx="0.710045" ry="0.735365" fill="#444444"/>
</g>
<defs>
<clipPath id="clip0_1403_20">
<rect width="20" height="20" fill="white"/>
</clipPath>
</defs>
</svg>
