<svg width="15" height="16" viewBox="0 0 15 16" fill="none" xmlns="http://www.w3.org/2000/svg">
<path d="M13.727 0.67401C12.8283 -0.22467 11.3713 -0.22467 10.4726 0.67401L1.3496 9.79705C1.28708 9.85957 1.24194 9.93707 1.21837 10.0222L0.0186601 14.3534C-0.0306784 14.5309 0.0194591 14.7211 0.149697 14.8515C0.280134 14.9818 0.470298 15.0319 0.647876 14.9828L4.97908 13.7829C5.06418 13.7593 5.14168 13.7142 5.2042 13.6516L14.327 4.52841C15.2243 3.62913 15.2243 2.17334 14.327 1.27406L13.727 0.67401ZM2.46381 10.1294L9.93031 2.66273L12.3383 5.07073L4.87162 12.5374L2.46381 10.1294ZM1.98281 11.0946L3.90662 13.0186L1.24553 13.7559L1.98281 11.0946ZM13.6039 3.80531L13.0616 4.34763L10.6534 1.93943L11.1959 1.39711C11.6951 0.897931 12.5045 0.897931 13.0037 1.39711L13.6039 1.99716C14.1023 2.49694 14.1023 3.30573 13.6039 3.80531V3.80531Z" fill="black"/>
</svg>
