<svg width="21" height="18" viewBox="0 0 21 18" fill="none" xmlns="http://www.w3.org/2000/svg">
<rect width="21" height="18" fill="white"/>
<circle cx="6.5" cy="4" r="3.5" stroke="black"/>
<circle cx="14.5" cy="4" r="3.5" stroke="black"/>
<path d="M12.5 13C12.5 10.2386 9.81371 8 6.5 8C3.18629 8 1 10.2386 1 13" stroke="black"/>
<path d="M1 13V15.5C1 16.6046 1.89543 17.5 3 17.5H10.5C11.6046 17.5 12.5 16.6046 12.5 15.5V13" stroke="black"/>
<path d="M20 13V15.5C20 16.6046 19.1046 17.5 18 17.5H9" stroke="black"/>
<path d="M20 13C20 10.2386 17.3137 8 14 8C12.3991 8 11.0613 8.52249 10.1061 9.374" stroke="black"/>
</svg>
