<svg width="40" height="37" viewBox="0 0 40 37" fill="none" xmlns="http://www.w3.org/2000/svg">
<path fill-rule="evenodd" clip-rule="evenodd" d="M19 8.20773C19 12.1881 15.7721 15.4155 11.7896 15.4155C7.80702 15.4155 4.5791 12.1881 4.5791 8.20773C4.5791 4.22732 7.80702 1 11.7896 1C15.7721 1 19 4.22732 19 8.20773ZM20 8.22016C19.9945 11.9496 17.5007 15.096 14.0894 16.0891C16.1601 16.4053 18.0684 17.1407 19.6747 18.1922C21.3004 16.9213 23.2274 16.2025 25.5822 15.9859C22.3404 14.8917 20.0054 11.8289 20 8.22016ZM30.1016 16.1967C33.7244 15.3429 36.4209 12.0901 36.4209 8.20773C36.4209 3.67472 32.7449 0 28.2104 0C23.6801 0 20.0067 3.66801 20 8.19529C19.9933 3.66801 16.3199 0 11.7896 0C7.25504 0 3.5791 3.67472 3.5791 8.20773C3.5791 11.9466 6.07989 15.1016 9.50056 16.0923C3.73337 17.0084 0 21.3766 0 26.6751V33.9088C0 35.2895 1.11929 36.4088 2.5 36.4088H22.1051L22.1139 36.4087H37.4998C38.8805 36.4087 39.9998 35.2895 39.9998 33.9087V26.675L39.9998 26.6751C39.9998 21.5138 35.7222 17.2983 30.1016 16.1967ZM38.9998 26.675L38.9998 26.6751C38.9998 21.3666 33.7991 16.9154 27.1841 16.9154C24.3855 16.9154 22.2556 17.5377 20.5267 18.8016C23.0263 20.7529 24.6051 23.5395 24.6051 26.6751V33.9088C24.6051 34.4716 24.4191 34.9909 24.1052 35.4087H37.4998C38.3283 35.4087 38.9998 34.7372 38.9998 33.9087V26.675ZM23.6051 33.9088C23.6051 34.7349 22.9372 35.4051 22.1119 35.4087H16.9211L2.5 35.4088C1.67157 35.4088 1 34.7372 1 33.9088V26.6751C1 21.313 5.2349 16.9154 11.7894 16.9154C18.4044 16.9154 23.6051 21.3666 23.6051 26.6751V33.9088ZM35.4209 8.20773C35.4209 12.1881 32.193 15.4155 28.2104 15.4155C24.2279 15.4155 21 12.1881 21 8.20773C21 4.22732 24.2279 1 28.2104 1C32.193 1 35.4209 4.22732 35.4209 8.20773Z" fill="#B60F46"/>
</svg>
