<svg width="20" height="20" viewBox="0 0 20 20" fill="none" xmlns="http://www.w3.org/2000/svg">
<g clip-path="url(#clip0_374:3)">
<path d="M7.29175 14.6767V18.5417C7.29175 18.8117 7.46508 19.0508 7.72175 19.1358C7.78591 19.1567 7.85175 19.1667 7.91675 19.1667C8.11174 19.1667 8.30008 19.075 8.42008 18.9117L10.6809 15.835L7.29175 14.6767Z" fill="#B60F46"/>
<path d="M19.7376 0.115831C19.5459 -0.0200025 19.2942 -0.0383358 19.0859 0.0708309L0.335871 9.8625C0.114204 9.97833 -0.0166296 10.215 0.00170373 10.4642C0.0208704 10.7142 0.186704 10.9275 0.422537 11.0083L5.63504 12.79L16.7359 3.29833L8.14588 13.6475L16.8817 16.6333C16.9467 16.655 17.0151 16.6667 17.0834 16.6667C17.1967 16.6667 17.3092 16.6358 17.4084 16.5758C17.5667 16.4792 17.6742 16.3167 17.7017 16.1342L19.9934 0.717498C20.0276 0.484164 19.9292 0.252498 19.7376 0.115831Z" fill="#B60F46"/>
</g>
<defs>
<clipPath id="clip0_374:3">
<rect width="20" height="20" fill="white"/>
</clipPath>
</defs>
</svg>
