<?xml version="1.0" encoding="UTF-8"?>
<svg xmlns="http://www.w3.org/2000/svg" xmlns:xlink="http://www.w3.org/1999/xlink" viewBox="0 0 64 64" width="64px" height="64px">
<g id="surface16921618">
<path style=" stroke:none;fill-rule:nonzero;fill:rgb(0%,0%,0%);fill-opacity:1;" d="M 7 6.5 C 3.398438 6.5 0.5 9.398438 0.5 13 L 0.5 52 C 0.5 55.601562 3.398438 58.5 7 58.5 L 57 58.5 C 60.601562 58.5 63.5 55.601562 63.5 52 L 63.5 43.800781 C 63.5 42.949219 62.851562 42.300781 62 42.300781 C 61.148438 42.300781 60.5 42.949219 60.5 43.800781 L 60.5 52 C 60.5 53.949219 58.949219 55.5 57 55.5 L 19 55.5 C 24.699219 37.800781 39.449219 30.800781 61.699219 35.25 C 61.800781 35.25 61.898438 35.300781 62 35.300781 C 62.851562 35.300781 63.5 34.648438 63.5 33.800781 L 63.5 13 C 63.5 9.398438 60.601562 6.5 57 6.5 Z M 7 9.5 L 57 9.5 C 58.949219 9.5 60.5 11.050781 60.5 13 L 60.5 31.949219 C 37.449219 27.898438 21.699219 36.199219 15.902344 55.5 L 7 55.5 C 5.050781 55.5 3.5 53.949219 3.5 52 L 3.5 13 C 3.5 11.050781 5.050781 9.5 7 9.5 Z M 18 15.5 C 15.75 15.5 13.601562 16.398438 12 18 C 8.699219 21.300781 8.699219 26.699219 12 30.050781 C 13.601562 31.648438 15.75 32.550781 18 32.550781 C 20.25 32.550781 22.398438 31.648438 24 30.050781 C 27.300781 26.75 27.300781 21.351562 24 18 C 22.398438 16.398438 20.25 15.5 18 15.5 Z M 18 18.5 C 19.5 18.5 20.851562 19.050781 21.902344 20.097656 C 24.050781 22.25 24.050781 25.75 21.902344 27.902344 C 20.851562 28.949219 19.449219 29.5 18 29.5 C 16.550781 29.5 15.148438 28.949219 14.097656 27.902344 C 11.949219 25.75 11.949219 22.25 14.097656 20.097656 C 15.148438 19.050781 16.5 18.5 18 18.5 Z M 18 18.5 "/>
</g>
</svg>
