<svg width="20" height="18" viewBox="0 0 20 18" fill="none" xmlns="http://www.w3.org/2000/svg">
<path fill-rule="evenodd" clip-rule="evenodd" d="M14.6875 0.165466C16.1859 0.165466 17.5543 0.781873 18.5408 1.90117C19.4818 2.96894 20 4.39894 20 5.92777C20 7.59195 19.3503 9.13976 17.9553 10.7989C16.7085 12.2817 14.9149 13.8102 12.838 15.5799L12.8308 15.5861C12.059 16.2438 11.2609 16.9239 10.4115 17.6671L10.3859 17.6895C10.2755 17.7862 10.1377 17.8345 10 17.8345C9.86227 17.8345 9.72453 17.7862 9.61406 17.6895L9.58848 17.6671C8.73652 16.9217 7.93627 16.2397 7.16242 15.5803L7.16211 15.58C5.08512 13.8101 3.29148 12.2817 2.04473 10.7989C0.649727 9.1398 0 7.59195 0 5.92777C0 4.39894 0.518242 2.96894 1.45918 1.90121C2.44566 0.781912 3.81414 0.165466 5.3125 0.165466C7.41984 0.165466 8.75402 1.42406 9.50215 2.47992C9.69629 2.7539 9.86137 3.02863 10 3.28715C10.1386 3.02863 10.3038 2.7539 10.4979 2.47992C11.246 1.42406 12.5802 0.165466 14.6875 0.165466Z" fill="#B60F46"/>
</svg>
