<svg width="18" height="20" viewBox="0 0 18 20" fill="none" xmlns="http://www.w3.org/2000/svg">
<rect width="18" height="20" fill="white"/>
<path d="M10 1H3C1.89543 1 1 1.89543 1 3V17C1 18.1046 1.89543 19 3 19H10" stroke="black" stroke-linecap="round"/>
<path d="M5 9.5C4.72386 9.5 4.5 9.72386 4.5 10C4.5 10.2761 4.72386 10.5 5 10.5V9.5ZM17.3536 10.3536C17.5488 10.1583 17.5488 9.84171 17.3536 9.64645L14.1716 6.46447C13.9763 6.2692 13.6597 6.2692 13.4645 6.46447C13.2692 6.65973 13.2692 6.97631 13.4645 7.17157L16.2929 10L13.4645 12.8284C13.2692 13.0237 13.2692 13.3403 13.4645 13.5355C13.6597 13.7308 13.9763 13.7308 14.1716 13.5355L17.3536 10.3536ZM5 10.5H17V9.5H5V10.5Z" fill="black"/>
</svg>
