<svg width="20" height="20" viewBox="0 0 20 20" fill="none" xmlns="http://www.w3.org/2000/svg">
<g clip-path="url(#clip0_1365_25)">
<rect width="20" height="20" fill="white"/>
<path d="M9.79659 19C14.8795 19 19 14.9706 19 10C19 5.02944 14.8795 1 9.79659 1C4.71369 1 0.593185 5.02944 0.593185 10" stroke="black"/>
<path d="M10.3079 19C7.99411 19.1333 6.18059 18.0734 4.68358 18C3.3868 17.9365 0.593156 19.0001 0.593172 18.5C0.593188 18 1.61578 15.5 1.61578 15.5C0.746127 12.7446 0.520712 11.4296 0.593172 9.50003" stroke="black"/>
<line x1="7.22879" y1="8.5" x2="14.4096" y2="8.5" stroke="black" stroke-linecap="round"/>
<line x1="5.18359" y1="12.5" x2="12.3644" y2="12.5" stroke="black" stroke-linecap="round"/>
<line x1="5.18359" y1="10.5" x2="14.4096" y2="10.5" stroke="black" stroke-linecap="round"/>
<line x1="5.18359" y1="8.5" x2="5.20619" y2="8.5" stroke="black" stroke-linecap="round"/>
<line x1="5.18359" y1="8.5" x2="5.20619" y2="8.5" stroke="black" stroke-linecap="round"/>
<line x1="5.13359" y1="8.55" x2="5.25619" y2="8.55" stroke="black" stroke-width="0.9" stroke-linecap="round"/>
<line x1="14.337" y1="12.55" x2="14.4596" y2="12.55" stroke="black" stroke-width="0.9" stroke-linecap="round"/>
</g>
<defs>
<clipPath id="clip0_1365_25">
<rect width="20" height="20" fill="white"/>
</clipPath>
</defs>
</svg>
