<svg width="18" height="20" viewBox="0 0 18 20" fill="none" xmlns="http://www.w3.org/2000/svg">
<rect width="18" height="20" fill="white"/>
<circle cx="3.5" cy="13.5" r="3" stroke="black"/>
<path d="M17.5 16.5C17.5 18.1569 16.1569 19.5 14.5 19.5C12.8431 19.5 11.5 18.1569 11.5 16.5C11.5 14.8431 12.8431 13.5 14.5 13.5C16.1569 13.5 17.5 14.8431 17.5 16.5Z" stroke="black"/>
<path d="M5.5 2.85792C5.5 2.61113 5.68006 2.40126 5.92397 2.36373L16.924 0.671425C17.2269 0.624829 17.5 0.859168 17.5 1.16561V5.14208C17.5 5.38887 17.3199 5.59874 17.076 5.63627L6.07603 7.32857C5.77315 7.37517 5.5 7.14083 5.5 6.83439V2.85792Z" stroke="black"/>
<line x1="17.5" y1="5.00146" x2="17.4678" y2="16.0014" stroke="black"/>
<line x1="5.5" y1="11" x2="5.5" y2="6" stroke="black"/>
</svg>
