<svg width="43" height="45" viewBox="0 0 43 45" fill="none" xmlns="http://www.w3.org/2000/svg">
<path fill-rule="evenodd" clip-rule="evenodd" d="M13.1111 5.13697L40 1.00021V12.31L13.1111 16.4468V5.13697ZM12.1111 5.13697C12.1111 4.6434 12.4712 4.22365 12.9591 4.1486L39.8479 0.0118429C40.4537 -0.0813507 41 0.387329 41 1.00021V11.0305L41.4999 32.5251L41.4643 32.526C42.1574 33.6893 42.5556 35.0488 42.5556 36.5013C42.5556 40.7968 39.0733 44.2791 34.7778 44.2791C30.4822 44.2791 27 40.7968 27 36.5013C27 32.2057 30.4822 28.7235 34.7778 28.7235C37.0246 28.7235 39.0489 29.6762 40.4688 31.1997L40.0528 13.3137L13.2632 17.4351C13.1736 17.4489 13.0854 17.4504 13 17.441V24.0707C14.5697 25.4937 15.5556 27.5491 15.5556 29.8347C15.5556 34.1302 12.0733 37.6124 7.77778 37.6124C3.48223 37.6124 0 34.1302 0 29.8347C0 25.5391 3.48223 22.0569 7.77778 22.0569C9.3343 22.0569 10.784 22.5141 12 23.3016V13.0367H12.1111V5.13697ZM12 24.5323C10.8418 23.6088 9.37424 23.0569 7.77778 23.0569C4.03451 23.0569 1 26.0914 1 29.8347C1 33.5779 4.03451 36.6124 7.77778 36.6124C11.521 36.6124 14.5556 33.5779 14.5556 29.8347C14.5556 27.6904 13.5598 25.7787 12.0055 24.5367H12V24.5323ZM34.7778 43.2791C38.521 43.2791 41.5556 40.2446 41.5556 36.5013C41.5556 32.758 38.521 29.7235 34.7778 29.7235C31.0345 29.7235 28 32.758 28 36.5013C28 40.2446 31.0345 43.2791 34.7778 43.2791Z" fill="#B60F46"/>
</svg>
