<svg width="41" height="33" viewBox="0 0 41 33" fill="none" xmlns="http://www.w3.org/2000/svg">
<path fill-rule="evenodd" clip-rule="evenodd" d="M11.7073 3.18291C11.7073 1.69444 12.914 0.487793 14.4024 0.487793H20.5H27.0854C28.5738 0.487793 29.7805 1.69444 29.7805 3.18291C29.7805 4.11911 30.5394 4.87804 31.4756 4.87804H35.0122C38.0497 4.87804 40.5122 7.34047 40.5122 10.378V26.6566C40.5122 29.7211 38.0077 32.1945 34.9434 32.1562L5.91905 31.7934C2.90853 31.7557 0.487793 29.3046 0.487793 26.2938V10.378C0.487793 7.34047 2.95023 4.87804 5.98779 4.87804H10.0122C10.9484 4.87804 11.7073 4.1191 11.7073 3.18291ZM14.4024 1.48779C13.4662 1.48779 12.7073 2.24672 12.7073 3.18291C12.7073 4.67139 11.5007 5.87804 10.0122 5.87804H5.98779C3.50251 5.87804 1.48779 7.89276 1.48779 10.378V26.2938C1.48779 28.7571 3.4684 30.7627 5.93155 30.7935L34.9559 31.1563C37.463 31.1876 39.5122 29.1639 39.5122 26.6566V10.378C39.5122 7.89275 37.4975 5.87804 35.0122 5.87804H31.4756C29.9871 5.87804 28.7805 4.67139 28.7805 3.18291C28.7805 2.24672 28.0215 1.48779 27.0854 1.48779H20.5H14.4024ZM20.5 26.3293C24.797 26.3293 28.2805 22.8458 28.2805 18.5488C28.2805 14.2517 24.797 10.7683 20.5 10.7683C16.2029 10.7683 12.7195 14.2517 12.7195 18.5488C12.7195 22.8458 16.2029 26.3293 20.5 26.3293ZM20.5 27.3293C25.3493 27.3293 29.2805 23.3981 29.2805 18.5488C29.2805 13.6994 25.3493 9.76828 20.5 9.76828C15.6507 9.76828 11.7195 13.6994 11.7195 18.5488C11.7195 23.3981 15.6507 27.3293 20.5 27.3293ZM34.1585 12.6951C35.2362 12.6951 36.1097 11.8215 36.1097 10.7439C36.1097 9.66626 35.2362 8.79267 34.1585 8.79267C33.0809 8.79267 32.2073 9.66626 32.2073 10.7439C32.2073 11.8215 33.0809 12.6951 34.1585 12.6951Z" fill="#B60F46"/>
</svg>
