<svg width="40" height="32" viewBox="0 0 40 32" fill="none" xmlns="http://www.w3.org/2000/svg">
<rect width="40" height="32" fill="white"/>
<path d="M38.6692 4.90494C37.8707 4.06844 36.7681 3.57414 35.5133 3.57414H29.2015V3.4981C29.2015 2.54753 28.8213 1.63498 28.1749 1.02661C27.5285 0.380228 26.654 0 25.7034 0H14.2966C13.308 0 12.4335 0.380228 11.7871 1.02661C11.1407 1.673 10.7605 2.54753 10.7605 3.4981V3.57414H4.48669C3.23194 3.57414 2.12928 4.06844 1.3308 4.90494C0.532319 5.70342 0 6.8441 0 8.06083V26.9962C0 28.2509 0.494297 29.3536 1.3308 30.1521C2.12928 30.9505 3.26996 31.4829 4.48669 31.4829H35.5133C36.7681 31.4829 37.8707 30.9886 38.6692 30.1521C39.4677 29.3536 40 28.2129 40 26.9962V8.06083C40 6.80608 39.5057 5.70342 38.6692 4.90494ZM38.0228 26.9962H37.9848C37.9848 27.6806 37.7186 28.2889 37.2624 28.7452C36.8061 29.2015 36.1977 29.4677 35.5133 29.4677H4.48669C3.80228 29.4677 3.19392 29.2015 2.73764 28.7452C2.28137 28.2889 2.01521 27.6806 2.01521 26.9962V8.06083C2.01521 7.37642 2.28137 6.76805 2.73764 6.31178C3.19392 5.85551 3.80228 5.58935 4.48669 5.58935H11.8251C12.3954 5.58935 12.8517 5.13308 12.8517 4.56273V3.46007C12.8517 3.04182 13.0038 2.66159 13.27 2.39544C13.5361 2.12928 13.9164 1.97718 14.3346 1.97718H25.7034C26.1217 1.97718 26.5019 2.12928 26.7681 2.39544C27.0342 2.66159 27.1863 3.04182 27.1863 3.46007V4.56273C27.1863 5.13308 27.6426 5.58935 28.2129 5.58935H35.5513C36.2357 5.58935 36.8441 5.85551 37.3004 6.31178C37.7567 6.76805 38.0228 7.37642 38.0228 8.06083V26.9962Z" fill="#B60F46"/>
<path d="M20 8.17493C17.4144 8.17493 15.057 9.23957 13.384 10.9126C11.673 12.6236 10.6464 14.943 10.6464 17.5285C10.6464 20.1141 11.711 22.4715 13.384 24.1445C15.095 25.8555 17.4144 26.8822 20 26.8822C22.5855 26.8822 24.943 25.8175 26.616 24.1445C28.327 22.4335 29.3536 20.1141 29.3536 17.5285C29.3536 14.943 28.289 12.5856 26.616 10.9126C24.943 9.23957 22.5855 8.17493 20 8.17493ZM25.1711 22.7377C23.8403 24.0304 22.0152 24.8669 20 24.8669C17.9848 24.8669 16.1597 24.0304 14.8289 22.7377C13.4981 21.4069 12.6996 19.5818 12.6996 17.5666C12.6996 15.5514 13.5361 13.7263 14.8289 12.3955C16.1597 11.0647 17.9848 10.2662 20 10.2662C22.0152 10.2662 23.8403 11.1027 25.1711 12.3955C26.5019 13.7263 27.3004 15.5514 27.3004 17.5666C27.3384 19.5818 26.5019 21.4069 25.1711 22.7377Z" fill="#B60F46"/>
<path d="M33.5362 11.8631C34.5652 11.8631 35.3994 11.0289 35.3994 9.99996C35.3994 8.97099 34.5652 8.13684 33.5362 8.13684C32.5073 8.13684 31.6731 8.97099 31.6731 9.99996C31.6731 11.0289 32.5073 11.8631 33.5362 11.8631Z" fill="#B60F46"/>
</svg>
