<svg width="20" height="20" viewBox="0 0 20 20" fill="none" xmlns="http://www.w3.org/2000/svg">
<g clip-path="url(#clip0)">
<path d="M14.38 20.0385C14.7862 20.0385 15.1846 19.8798 15.4848 19.5801L19.3114 15.7616C19.7554 15.3185 20 14.729 20 14.1017C20 13.4744 19.7554 12.8848 19.3114 12.4417L15.4848 8.6232C15.0351 8.17429 14.3651 8.04169 13.7779 8.28522C13.1915 8.52844 12.8127 9.09546 12.8127 9.72961V13.3203C6.60934 13.3203 1.5625 8.27347 1.5625 2.07016V0.820312C1.5625 0.388794 1.21277 0.0390625 0.78125 0.0390625C0.349731 0.0390625 0 0.388794 0 0.820312V2.07016C0 5.49255 1.3327 8.71017 3.75275 11.1302C6.17279 13.5501 9.39026 14.883 12.8127 14.883C13.6743 14.883 14.3753 14.182 14.3753 13.3205V9.72961C14.3753 9.72946 14.3753 9.72931 14.3753 9.72916C14.3765 9.72855 14.3781 9.72794 14.3794 9.72748C14.3799 9.72809 14.3805 9.72855 14.3811 9.72916L18.2077 13.5478C18.3559 13.6957 18.4375 13.8924 18.4375 14.1017C18.4375 14.3111 18.3559 14.5078 18.2077 14.6556L14.3811 18.4741L14.3794 18.4758C14.3781 18.4753 14.3765 18.4749 14.3753 18.4743C14.3753 18.4741 14.3753 18.474 14.3753 18.4737V17.6173C14.3753 17.1858 14.0254 16.8361 13.5939 16.8361C13.1625 16.8361 12.8127 17.1858 12.8127 17.6173V18.4737C12.8127 19.1078 13.1915 19.6748 13.7779 19.9181C13.9731 19.9991 14.1776 20.0385 14.38 20.0385Z" fill="#444444"/>
</g>
<defs>
<clipPath id="clip0">
<rect width="20" height="20" fill="white" transform="matrix(-1 0 0 1 20 0)"/>
</clipPath>
</defs>
</svg>
