<svg width="15" height="20" viewBox="0 0 15 20" fill="none" xmlns="http://www.w3.org/2000/svg">
<g clip-path="url(#clip0_1376_51)">
<rect width="15" height="20" fill="white"/>
<path d="M6.36868 1.87824L6.36919 1.27552C6.36948 0.937317 5.9765 0.771975 5.71577 1.0006L2.61727 3.71765C2.43171 3.88037 2.42217 4.16214 2.59694 4.31826L5.69077 7.08203C5.94541 7.3095 6.36423 7.10704 6.36453 6.75633L6.36587 5.18065C6.36605 4.95976 6.54316 4.7709 6.76334 4.77297C9.29108 4.79673 14.6391 6.11929 14.5587 11.615" stroke="black" stroke-linecap="round"/>
<path d="M8.26475 18.4525L8.23879 19.0547C8.22423 19.3926 8.60987 19.5744 8.88002 19.3569L12.0905 16.7731C12.2827 16.6184 12.3042 16.3373 12.1361 16.1739L9.16177 13.282C8.91696 13.044 8.48997 13.2286 8.47486 13.579L8.40699 15.1532C8.39748 15.3739 8.21256 15.5551 7.99266 15.5437C5.46818 15.4132 0.180809 13.8661 0.49318 8.37862" stroke="black" stroke-linecap="round"/>
</g>
<defs>
<clipPath id="clip0_1376_51">
<rect width="15" height="20" fill="white"/>
</clipPath>
</defs>
</svg>
