<svg width="16" height="19" viewBox="0 0 16 19" fill="none" xmlns="http://www.w3.org/2000/svg">
<path d="M9.1076 19C9.36486 19 9.61719 18.8995 9.80728 18.7097L12.2309 16.2912C12.5121 16.0106 12.667 15.6373 12.667 15.24C12.667 14.8427 12.5121 14.4693 12.2309 14.1886L9.80728 11.7702C9.52248 11.4859 9.09813 11.4019 8.72626 11.5561C8.35486 11.7102 8.1149 12.0693 8.1149 12.4709V14.7451C4.18605 14.7451 0.989647 11.5487 0.989647 7.61983V6.82824C0.989647 6.55494 0.768145 6.33344 0.494843 6.33344C0.221542 6.33344 4.1008e-05 6.55494 4.1008e-05 6.82824V7.61983C4.1008e-05 9.78739 0.844105 11.8253 2.37683 13.358C3.90956 14.8906 5.94734 15.7348 8.1149 15.7348C8.66064 15.7348 9.10461 15.2908 9.10461 14.7452V12.4709C9.10461 12.4708 9.10461 12.4707 9.10461 12.4706C9.10538 12.4702 9.10634 12.4699 9.10721 12.4696C9.1075 12.47 9.10789 12.4702 9.10828 12.4706L11.5318 14.8892C11.6257 14.9828 11.6774 15.1074 11.6774 15.24C11.6774 15.3726 11.6257 15.4971 11.5318 15.5908L9.10828 18.0092L9.10721 18.0103C9.10634 18.01 9.10538 18.0097 9.10461 18.0093C9.10461 18.0092 9.10461 18.0091 9.10461 18.0089V17.4666C9.10461 17.1933 8.88301 16.9718 8.60971 16.9718C8.3365 16.9718 8.1149 17.1933 8.1149 17.4666V18.0089C8.1149 18.4106 8.35486 18.7697 8.72626 18.9237C8.84986 18.9751 8.97936 19 9.1076 19Z" fill="#444444"/>
<path d="M6.09284 0C5.83558 0 5.58325 0.100507 5.39316 0.290311L2.96959 2.70876C2.68836 2.9894 2.53345 3.36273 2.53345 3.76002C2.53345 4.15731 2.68836 4.53073 2.96959 4.81138L5.39316 7.22982C5.67796 7.51414 6.10231 7.59812 6.47418 7.44388C6.84558 7.28984 7.08554 6.93072 7.08554 6.52908V4.25492C11.0144 4.25492 14.2108 7.45132 14.2108 11.3802V12.1718C14.2108 12.4451 14.4323 12.6666 14.7056 12.6666C14.9789 12.6666 15.2004 12.4451 15.2004 12.1718V11.3802C15.2004 9.21261 14.3563 7.17474 12.8236 5.64201C11.2909 4.10938 9.2531 3.26522 7.08554 3.26522C6.5398 3.26522 6.09583 3.70918 6.09583 4.25482V6.52908C6.09583 6.52917 6.09583 6.52927 6.09583 6.52937C6.09506 6.52975 6.09409 6.53014 6.09322 6.53043C6.09293 6.53004 6.09255 6.52975 6.09216 6.52937L3.66859 4.11083C3.57476 4.01718 3.52305 3.89261 3.52305 3.76002C3.52305 3.62743 3.57476 3.50286 3.66859 3.40921L6.09216 0.990766L6.09322 0.989702C6.09409 0.989992 6.09506 0.990282 6.09583 0.990669C6.09583 0.990766 6.09583 0.990862 6.09583 0.991055V1.53341C6.09583 1.80671 6.31743 2.02821 6.59073 2.02821C6.86394 2.02821 7.08554 1.80671 7.08554 1.53341V0.991055C7.08554 0.589415 6.84558 0.230296 6.47418 0.0762501C6.35058 0.0249338 6.22108 0 6.09284 0Z" fill="#444444"/>
</svg>
