<svg width="21" height="20" viewBox="0 0 21 20" fill="none" xmlns="http://www.w3.org/2000/svg">
<rect width="21" height="20" fill="white"/>
<path d="M5.86276 6H1.4C1.17909 6 1 6.17909 1 6.4V13.6C1 13.8209 1.17909 14 1.4 14H5.38921C5.4617 14 5.53284 14.0197 5.595 14.057L9.8942 16.6365C10.1608 16.7965 10.5 16.6044 10.5 16.2935V3.31786C10.5 2.985 10.1172 2.79776 9.85442 3.00211L6.10833 5.91574C6.03812 5.97035 5.95171 6 5.86276 6Z" stroke="black"/>
<path d="M13.5 15C15.1569 15 16.5 12.7614 16.5 10C16.5 7.23858 15.1569 5 13.5 5" stroke="black" stroke-linecap="round"/>
<path d="M14.5 19C17.8137 19 20.5 14.9706 20.5 10C20.5 5.02944 17.8137 1 14.5 1" stroke="black" stroke-linecap="round"/>
</svg>
