<svg width="20" height="20" viewBox="0 0 20 20" fill="none" xmlns="http://www.w3.org/2000/svg">
<path d="M14.0004 0.832442C13.7039 0.702832 13.3585 0.838262 13.2289 1.13475C13.0993 1.43123 13.2347 1.7767 13.5312 1.90627C16.7487 3.31228 18.8278 6.48916 18.828 9.99982C18.828 13.5107 16.7488 16.6877 13.5309 18.0937C13.2344 18.2232 13.099 18.5686 13.2286 18.8652C13.3248 19.0854 13.54 19.2167 13.7658 19.2167C13.8442 19.2167 13.9238 19.2009 14.0001 19.1675C17.6448 17.575 19.9999 13.9765 19.9999 9.99978C19.9997 6.02334 17.6448 2.42494 14.0004 0.832442Z" fill="#444444"/>
<path d="M14.1567 5.35359C13.9156 5.13777 13.5452 5.15824 13.3293 5.39934C13.1135 5.64047 13.134 6.01086 13.3751 6.22672C14.4474 7.18668 15.0624 8.56195 15.0624 9.99992C15.0624 11.4378 14.4474 12.8132 13.3751 13.7731C13.134 13.9889 13.1135 14.3594 13.3293 14.6005C13.4451 14.7298 13.6052 14.7956 13.7661 14.7956C13.9052 14.7956 14.0449 14.7464 14.1567 14.6462C15.477 13.4643 16.2343 11.7707 16.2343 9.99988C16.2343 8.22906 15.477 6.53551 14.1567 5.35359Z" fill="#444444"/>
<path d="M10.2648 2.25986C10.0679 2.16006 9.83156 2.17947 9.65352 2.31002L5.10117 5.64834H0.585938C0.262344 5.64834 0 5.91068 0 6.23428V13.7656C0 14.0892 0.262344 14.3515 0.585938 14.3515H5.10113L9.65348 17.6899C9.75594 17.7651 9.87762 17.8033 10 17.8033C10.0904 17.8033 10.1812 17.7824 10.2648 17.7401C10.4618 17.6403 10.5859 17.4382 10.5859 17.2174V2.78244C10.5859 2.56166 10.4618 2.35959 10.2648 2.25986ZM9.41402 16.061L5.63945 13.293C5.53895 13.2193 5.41758 13.1796 5.29293 13.1796H1.17188V6.82022H5.29293C5.41754 6.82022 5.53895 6.78045 5.63941 6.70682L9.41402 3.93881V16.061Z" fill="#444444"/>
</svg>
