<svg width="40" height="24" viewBox="0 0 40 24" fill="none" xmlns="http://www.w3.org/2000/svg">
<path fill-rule="evenodd" clip-rule="evenodd" d="M2 1H27.2683C27.8206 1 28.2683 1.44771 28.2683 2V21.4146C28.2683 21.9669 27.8206 22.4146 27.2683 22.4146H2C1.44771 22.4146 1 21.9669 1 21.4146V2C1 1.44772 1.44772 1 2 1ZM0 2C0 0.895432 0.895431 0 2 0H27.2683C28.3729 0 29.2683 0.895431 29.2683 2V5.44715L39.5846 1.14869C39.7822 1.06635 40 1.21154 40 1.42561V21.989C40 22.2031 39.7822 22.3483 39.5846 22.2659L29.2683 17.9675V21.4146C29.2683 22.5192 28.3729 23.4146 27.2683 23.4146H2C0.895429 23.4146 0 22.5192 0 21.4146V2ZM29.2927 16.8943V6.52033L39 2.47561V20.939L29.2927 16.8943Z" fill="#B60F46"/>
</svg>
